<?xml version="1.0" encoding="UTF-8" standalone="no"?>
<!-- Created with Inkscape (http://www.inkscape.org/) -->

<svg
   width="11.514838in"
   height="2.3591342in"
   viewBox="0 0 292.47688 59.922009"
   version="1.1"
   id="svg1"
   xml:space="preserve"
   sodipodi:docname="Terra_Banner.svg"
   inkscape:version="1.4.2 (ebf0e940, 2025-05-08)"
   xmlns:inkscape="http://www.inkscape.org/namespaces/inkscape"
   xmlns:sodipodi="http://sodipodi.sourceforge.net/DTD/sodipodi-0.dtd"
   xmlns="http://www.w3.org/2000/svg"
   xmlns:svg="http://www.w3.org/2000/svg"><sodipodi:namedview
     id="namedview1"
     pagecolor="#505050"
     bordercolor="#eeeeee"
     borderopacity="1"
     inkscape:showpageshadow="0"
     inkscape:pageopacity="0"
     inkscape:pagecheckerboard="0"
     inkscape:deskcolor="#505050"
     inkscape:document-units="mm"
     inkscape:zoom="0.76396436"
     inkscape:cx="625.68364"
     inkscape:cy="381.5623"
     inkscape:window-width="1920"
     inkscape:window-height="942"
     inkscape:window-x="0"
     inkscape:window-y="25"
     inkscape:window-maximized="0"
     inkscape:current-layer="layer1" /><defs
     id="defs1"><inkscape:path-effect
       effect="spiro"
       id="path-effect32"
       is_visible="true"
       lpeversion="1" /><inkscape:path-effect
       effect="spiro"
       id="path-effect31"
       is_visible="true"
       lpeversion="1" /><inkscape:path-effect
       effect="spiro"
       id="path-effect30"
       is_visible="true"
       lpeversion="1" /><inkscape:path-effect
       effect="spiro"
       id="path-effect29"
       is_visible="true"
       lpeversion="1" /><inkscape:path-effect
       effect="spiro"
       id="path-effect28"
       is_visible="true"
       lpeversion="1" /><inkscape:path-effect
       effect="spiro"
       id="path-effect27"
       is_visible="true"
       lpeversion="1" /><inkscape:path-effect
       effect="spiro"
       id="path-effect26"
       is_visible="true"
       lpeversion="1" /><inkscape:path-effect
       effect="spiro"
       id="path-effect25"
       is_visible="true"
       lpeversion="1" /><inkscape:path-effect
       effect="spiro"
       id="path-effect24"
       is_visible="true"
       lpeversion="1" /><inkscape:path-effect
       effect="spiro"
       id="path-effect23"
       is_visible="true"
       lpeversion="1" /><inkscape:path-effect
       effect="spiro"
       id="path-effect22"
       is_visible="true"
       lpeversion="1" /><inkscape:path-effect
       effect="bspline"
       id="path-effect21"
       is_visible="true"
       lpeversion="1.3"
       weight="33.333333"
       steps="2"
       helper_size="0"
       apply_no_weight="true"
       apply_with_weight="true"
       only_selected="false"
       uniform="false" /><inkscape:path-effect
       effect="bspline"
       id="path-effect20"
       is_visible="true"
       lpeversion="1.3"
       weight="33.333333"
       steps="2"
       helper_size="0"
       apply_no_weight="true"
       apply_with_weight="true"
       only_selected="false"
       uniform="false" /><inkscape:path-effect
       effect="spiro"
       id="path-effect19"
       is_visible="true"
       lpeversion="1" /><rect
       x="467.09744"
       y="482.82465"
       width="81.781372"
       height="424.63406"
       id="rect17" /><rect
       x="507.98813"
       y="438.78851"
       width="102.22672"
       height="496.9791"
       id="rect16" /><rect
       x="419.91589"
       y="341.27997"
       width="375.87976"
       height="599.20581"
       id="rect15" /><linearGradient
       id="linearGradient4"
       inkscape:swatch="gradient"><stop
         style="stop-color:#ffffff;stop-opacity:1;"
         offset="0"
         id="stop4" /><stop
         style="stop-color:#ffffff;stop-opacity:0;"
         offset="1"
         id="stop5" /></linearGradient></defs><g
     inkscape:label="Text"
     inkscape:groupmode="layer"
     id="layer1"
     transform="translate(-21.829653,-9.317072)"><g
       id="g1"
       transform="translate(60.069756,-121.25816)"
       style="fill:#ffffff"><g
         id="text12"
         inkscape:label="Fieldworks"
         style="opacity:1;fill:#ffffff"><path
           style="font-size:19.05px;font-family:'Avenir Next';-inkscape-font-specification:'Avenir Next';baseline-shift:baseline;display:inline;overflow:visible;vector-effect:none;fill:#ffffff;enable-background:accumulate;stop-color:#000000;stop-opacity:1"
           d="m 40.07938,189.65303 h -1.3716 v -13.4874 h 8.13435 v 1.2192 h -6.76275 v 4.6863 h 6.2865 v 1.20015 h -6.2865 z m 20.231106,0 h -1.3716 v -13.4874 h 1.3716 z m 14.478004,-1.2192 h 7.21995 v 1.2192 h -8.59155 v -13.4874 h 8.36295 v 1.2192 h -6.99135 v 4.6482 h 6.53415 v 1.20015 h -6.53415 z m 20.802616,0 h 6.286504 v 1.2192 h -7.658104 v -13.4874 h 1.3716 z m 17.411704,-12.2682 h 4.47675 q 1.2573,0 2.5146,0.4191 1.27635,0.4191 2.286,1.27635 1.0287,0.8382 1.65735,2.11455 0.62865,1.2573 0.62865,2.9337 0,1.69545 -0.62865,2.95275 -0.62865,1.2573 -1.65735,2.11455 -1.00965,0.8382 -2.286,1.2573 -1.2573,0.4191 -2.5146,0.4191 h -4.47675 z m 1.3716,12.2682 h 2.72415 q 1.524,0 2.64795,-0.47625 1.143,-0.47625 1.88595,-1.23825 0.74295,-0.78105 1.1049,-1.77165 0.381,-0.9906 0.381,-2.03835 0,-1.04775 -0.381,-2.03835 -0.36195,-0.9906 -1.1049,-1.7526 -0.74295,-0.78105 -1.88595,-1.2573 -1.12395,-0.47625 -2.64795,-0.47625 h -2.72415 z m 25.60321,-0.66675 h 0.0381 l 3.37185,-11.60145 h 1.6383 l 3.37185,11.60145 h 0.0381 l 3.29565,-11.60145 h 1.4478 l -3.98145,13.4874 h -1.6002 l -3.3909,-11.5824 h -0.0381 l -3.3909,11.5824 h -1.6002 l -3.98145,-13.4874 h 1.4478 z m 37.89047,-4.85775 q 0,1.54305 -0.5334,2.83845 -0.5334,1.2954 -1.4859,2.2479 -0.93345,0.93345 -2.22885,1.46685 -1.27635,0.5334 -2.7813,0.5334 -1.50495,0 -2.80035,-0.5334 -1.27635,-0.5334 -2.22885,-1.46685 -0.93345,-0.9525 -1.46685,-2.2479 -0.5334,-1.2954 -0.5334,-2.83845 0,-1.54305 0.5334,-2.83845 0.5334,-1.2954 1.46685,-2.22885 0.9525,-0.9525 2.22885,-1.4859 1.2954,-0.5334 2.80035,-0.5334 1.50495,0 2.7813,0.5334 1.2954,0.5334 2.22885,1.4859 0.9525,0.93345 1.4859,2.22885 0.5334,1.2954 0.5334,2.83845 z m -1.4478,0 q 0,-1.1811 -0.381,-2.2479 -0.381,-1.0668 -1.1049,-1.8669 -0.7239,-0.81915 -1.77165,-1.2954 -1.0287,-0.47625 -2.3241,-0.47625 -1.2954,0 -2.34315,0.47625 -1.0287,0.47625 -1.7526,1.2954 -0.7239,0.8001 -1.1049,1.8669 -0.381,1.0668 -0.381,2.2479 0,1.1811 0.381,2.2479 0.381,1.0668 1.1049,1.8669 0.7239,0.8001 1.7526,1.27635 1.04775,0.47625 2.34315,0.47625 1.2954,0 2.3241,-0.47625 1.04775,-0.47625 1.77165,-1.27635 0.7239,-0.8001 1.1049,-1.8669 0.381,-1.0668 0.381,-2.2479 z m 15.20191,6.7437 h -1.3716 v -13.4874 h 3.9624 q 0.9906,0 1.8288,0.1905 0.85725,0.1905 1.46685,0.62865 0.62865,0.4191 0.97155,1.1049 0.3429,0.6858 0.3429,1.6764 0,0.74295 -0.2667,1.35255 -0.2667,0.6096 -0.7239,1.0668 -0.4572,0.43815 -1.08585,0.70485 -0.62865,0.2667 -1.3716,0.3429 l 3.94335,6.41985 h -1.6764 l -3.7338,-6.30555 h -2.286 z m 0,-7.48665 h 2.38125 q 1.65735,0 2.5527,-0.59055 0.89535,-0.6096 0.89535,-1.80975 0,-0.66675 -0.24765,-1.12395 -0.24765,-0.4572 -0.6858,-0.74295 -0.43815,-0.28575 -1.0668,-0.4191 -0.62865,-0.13335 -1.39065,-0.13335 h -2.4384 z m 20.93595,0.0572 h 0.019 l 6.41985,-6.0579 h 1.96215 l -6.80085,6.11505 7.18185,7.37235 h -2.0193 l -6.7437,-7.18185 h -0.019 v 7.18185 h -1.3716 v -13.4874 h 1.3716 z m 26.42238,-3.8862 q -0.43815,-0.6096 -1.12395,-0.97155 -0.6858,-0.381 -1.65735,-0.381 -0.4953,0 -1.00965,0.1524 -0.51435,0.1524 -0.93345,0.47625 -0.4191,0.3048 -0.6858,0.78105 -0.24765,0.47625 -0.24765,1.12395 0,0.6477 0.24765,1.0668 0.24765,0.4191 0.6477,0.7239 0.4191,0.28575 0.93345,0.47625 0.5334,0.1905 1.1049,0.381 0.70485,0.2286 1.4097,0.4953 0.7239,0.2667 1.2954,0.70485 0.5715,0.4191 0.93345,1.08585 0.36195,0.6477 0.36195,1.65735 0,1.00965 -0.40005,1.7526 -0.381,0.7239 -1.00965,1.20015 -0.6096,0.47625 -1.4097,0.70485 -0.78105,0.2286 -1.58115,0.2286 -0.6096,0 -1.2192,-0.13335 -0.6096,-0.1143 -1.16205,-0.36195 -0.55245,-0.24765 -1.0287,-0.62865 -0.47625,-0.381 -0.8382,-0.8763 l 1.1811,-0.8763 q 0.43815,0.7239 1.2192,1.2192 0.8001,0.47625 1.8669,0.47625 0.51435,0 1.04775,-0.1524 0.5334,-0.17145 0.9525,-0.4953 0.43815,-0.3429 0.70485,-0.81915 0.28575,-0.4953 0.28575,-1.143 0,-0.70485 -0.28575,-1.16205 -0.2667,-0.47625 -0.7239,-0.78105 -0.4572,-0.32385 -1.04775,-0.5334 -0.59055,-0.20955 -1.23825,-0.4191 -0.66675,-0.20955 -1.31445,-0.47625 -0.6477,-0.2667 -1.16205,-0.6858 -0.51435,-0.43815 -0.8382,-1.0668 -0.3048,-0.62865 -0.3048,-1.54305 0,-0.97155 0.381,-1.6764 0.40005,-0.70485 1.0287,-1.16205 0.62865,-0.4572 1.39065,-0.66675 0.762,-0.20955 1.50495,-0.20955 1.3716,0 2.34315,0.4953 0.97155,0.47625 1.46685,1.143 z"
           id="path3" /><path
           style="font-size:19.05px;font-family:'Avenir Next';-inkscape-font-specification:'Avenir Next';baseline-shift:baseline;display:inline;overflow:visible;vector-effect:none;fill:#ffffff;enable-background:accumulate;stop-color:#000000;stop-opacity:1"
           d="m 170.83789,175.32227 c -1.06237,0 -2.0636,0.19071 -2.99023,0.57226 h -0.002 c -0.90777,0.37937 -1.70966,0.91279 -2.39062,1.59375 -0.6704,0.6704 -1.19562,1.47312 -1.57422,2.39258 -0.38221,0.92823 -0.57227,1.94298 -0.57227,3.0293 0,1.08631 0.19006,2.09911 0.57227,3.02734 0.37827,0.91866 0.90398,1.72628 1.57226,2.4082 l 0.002,0.004 0.004,0.004 c 0.68074,0.66712 1.48091,1.19176 2.38672,1.57031 h 0.002 v 0.002 c 0.92663,0.38156 1.92786,0.57031 2.99023,0.57031 1.06237,0 2.0592,-0.1897 2.97461,-0.57226 0.91837,-0.37852 1.72086,-0.90445 2.39062,-1.57422 0.68215,-0.68214 1.21469,-1.49152 1.59375,-2.41211 0.38222,-0.92823 0.57032,-1.94103 0.57032,-3.02734 0,-1.08632 -0.1881,-2.10107 -0.57032,-3.0293 -0.37811,-0.91827 -0.91086,-1.71947 -1.59179,-2.38867 -3.8e-4,-3.9e-4 -0.002,3.8e-4 -0.002,0 -0.66996,-0.68332 -1.4704,-1.21852 -2.39062,-1.59766 -0.91541,-0.38256 -1.91224,-0.57226 -2.97461,-0.57226 z m 65.41797,0 c -0.54231,0 -1.08866,0.0778 -1.63672,0.22851 -0.56375,0.15503 -1.0853,0.40419 -1.55273,0.74414 -0.47715,0.34702 -0.87064,0.793 -1.16993,1.32031 l -0.002,0.004 -0.002,0.004 c -0.2997,0.55444 -0.44141,1.201 -0.44141,1.91406 0,0.66515 0.11075,1.25699 0.35547,1.76172 l 0.002,0.006 0.002,0.004 c 0.24359,0.47286 0.56565,0.8837 0.95898,1.21875 l 0.004,0.004 0.004,0.004 c 0.38232,0.31151 0.81509,0.5646 1.28907,0.75976 0.44502,0.18325 0.89531,0.34818 1.35351,0.49219 0.42615,0.13791 0.83505,0.27457 1.22266,0.41211 0.35552,0.12615 0.66233,0.28409 0.92578,0.4707 l 0.006,0.004 0.006,0.004 c 0.24213,0.16142 0.42395,0.35848 0.56445,0.60938 l 0.006,0.01 0.006,0.0117 c 0.1293,0.20688 0.21094,0.49416 0.21094,0.89649 0,0.35827 -0.0773,0.64409 -0.22071,0.89258 v 0.004 l -0.002,0.002 c -0.14576,0.26029 -0.33377,0.48021 -0.57617,0.66992 -0.23035,0.17762 -0.49308,0.31262 -0.79492,0.41015 -0.3104,0.0876 -0.60871,0.13086 -0.89844,0.13086 -0.63444,0 -1.1571,-0.1387 -1.60547,-0.40429 -0.4595,-0.29283 -0.80401,-0.6379 -1.05273,-1.04883 l -0.28516,-0.47071 -2.01953,1.5 0.29297,0.4004 c 0.2669,0.36523 0.5779,0.68927 0.92969,0.9707 0.34987,0.2799 0.73002,0.513 1.13671,0.69531 0.40418,0.18118 0.82836,0.31325 1.27149,0.39649 0.43651,0.0946 0.87358,0.14257 1.3125,0.14257 0.57973,0 1.15508,-0.0834 1.71875,-0.24804 0.58701,-0.16772 1.11602,-0.43034 1.57422,-0.78711 l 0.002,-0.002 c 0.47539,-0.36066 0.86139,-0.81898 1.14648,-1.35937 v -0.002 c 0.31094,-0.57818 0.46094,-1.24984 0.46094,-1.98829 0,-0.73053 -0.13053,-1.36711 -0.42383,-1.89453 v -0.002 c -0.27107,-0.49892 -0.6304,-0.91893 -1.06836,-1.24219 l -0.002,-0.002 c -0.42251,-0.32358 -0.89879,-0.58196 -1.42383,-0.77539 h 0.004 c -0.47727,-0.18059 -0.95594,-0.34704 -1.43359,-0.50195 h 0.004 c -0.37642,-0.12548 -0.73901,-0.24974 -1.08984,-0.375 l -0.004,-0.002 c -0.30101,-0.11184 -0.56744,-0.24861 -0.80664,-0.41015 -0.21395,-0.16472 -0.38342,-0.35379 -0.51367,-0.57422 -0.10771,-0.18228 -0.17773,-0.44443 -0.17773,-0.8125 0,-0.3656 0.0687,-0.65238 0.18945,-0.88672 0.14451,-0.25534 0.32163,-0.45515 0.53906,-0.61328 l 0.006,-0.004 0.006,-0.004 c 0.23112,-0.1786 0.48366,-0.30788 0.76953,-0.39258 0.30099,-0.0892 0.58827,-0.13282 0.86719,-0.13282 0.58234,0 1.04448,0.11304 1.41406,0.31836 l 0.006,0.002 0.004,0.004 c 0.39359,0.20774 0.70385,0.47622 0.95117,0.82032 l 0.30859,0.42968 1.8711,-1.50976 -0.28711,-0.38672 c -0.38824,-0.52262 -0.94357,-0.94635 -1.64063,-1.28906 -5.3e-4,-2.7e-4 -0.001,2.7e-4 -0.002,0 -0.73218,-0.37289 -1.59448,-0.55078 -2.56836,-0.55078 z m -198.048829,0.34375 v 14.48632 h 2.373047 v -6.38086 h 6.285156 v -2.20117 h -6.285156 v -3.68554 h 6.761719 v -2.21875 z m 20.232422,0 v 14.48632 h 2.371094 v -14.48632 z m 14.476563,0 v 14.48632 h 9.591796 v -2.21875 h -7.21875 v -4.20117 h 6.533204 v -2.19922 h -6.533204 v -3.64843 h 6.990235 v -2.21875 z m 20.802734,0 v 14.48632 h 8.6582 v -2.21875 h -6.285153 v -12.26757 z m 18.7832,0 v 14.48632 h 4.97852 c 0.89312,0 1.78491,-0.14856 2.66992,-0.44336 0.90764,-0.29803 1.72796,-0.74887 2.44922,-1.34765 0.73967,-0.6164 1.3376,-1.38027 1.78516,-2.27539 0.4593,-0.91861 0.68164,-1.98369 0.68164,-3.17578 0,-1.1801 -0.22279,-2.2405 -0.68164,-3.15821 -0.44587,-0.90439 -1.04238,-1.66734 -1.78125,-2.27148 l -0.004,-0.002 c -0.7202,-0.61076 -1.53993,-1.0689 -2.44727,-1.36719 -0.88563,-0.29521 -1.77812,-0.44531 -2.67187,-0.44531 z m 22.02539,0 4.27735,14.48632 h 2.34765 l 3.03516,-10.36718 3.03516,10.36718 h 2.34961 l 4.27539,-14.48632 h -2.49414 l -2.94141,10.35742 -3.01172,-10.35742 h -2.38867 L 140,186.03125 137.01953,175.66602 Z m 55.22266,0 v 14.48632 h 2.37305 v -6.30468 h 1.5 l 3.73437,6.30468 h 2.85547 l -4.05859,-6.60547 c 0.26335,-0.0642 0.54382,-0.0941 0.78711,-0.19726 0.4696,-0.19923 0.88546,-0.46649 1.23632,-0.80274 l 0.004,-0.004 0.004,-0.004 c 0.34899,-0.34899 0.62667,-0.76023 0.82812,-1.2207 0.2077,-0.47474 0.3086,-0.99761 0.3086,-1.55274 0,-0.71809 -0.12287,-1.35706 -0.39454,-1.90039 -0.26397,-0.52793 -0.65254,-0.96545 -1.13867,-1.29101 -0.466,-0.33271 -1.01586,-0.5668 -1.63672,-0.70508 -0.6003,-0.13643 -1.247,-0.20312 -1.93945,-0.20312 z m 20.9375,0 v 14.48632 h 2.37109 v -6.43945 l 6.04493,6.43945 h 3.42187 l -7.64648,-7.84765 7.38476,-6.63867 h -3.46484 l -5.74024,5.41601 v -5.41601 z m -39.84961,0.65625 c 0.94423,0 1.80345,0.16745 2.58984,0.49609 h 0.002 c 0.80581,0.3318 1.48847,0.7873 2.0625,1.37305 l 0.004,0.004 0.002,0.004 c 0.58574,0.57403 1.04319,1.25669 1.375,2.0625 0.32898,0.79897 0.49414,1.67735 0.49414,2.64844 0,0.97108 -0.16516,1.84751 -0.49414,2.64648 -0.33213,0.80661 -0.7891,1.49808 -1.37696,2.08594 -0.57419,0.5742 -1.25866,1.02482 -2.0664,1.35742 h -0.002 v 0.002 c -0.78639,0.32864 -1.64561,0.49414 -2.58984,0.49414 -0.94423,0 -1.80881,-0.16645 -2.60937,-0.49609 -0.79436,-0.33233 -1.47805,-0.78502 -2.06641,-1.36133 -2.5e-4,-2.5e-4 -0.002,2.5e-4 -0.002,0 -0.5731,-0.58658 -1.02384,-1.27664 -1.35547,-2.08203 -0.32899,-0.79897 -0.4961,-1.6754 -0.4961,-2.64648 0,-0.97109 0.16711,-1.84947 0.4961,-2.64844 0.3326,-0.80775 0.78322,-1.49221 1.35742,-2.06641 0.58865,-0.58865 1.27304,-1.04517 2.06641,-1.37695 0.80056,-0.32964 1.66514,-0.49609 2.60937,-0.49609 z m 65.41797,0 c 0.85421,0 1.55431,0.15444 2.11719,0.4414 l 0.002,0.002 0.004,0.002 c 0.41436,0.20312 0.64128,0.45064 0.89453,0.6914 l -0.29297,0.23633 c -0.27213,-0.28046 -0.52984,-0.57734 -0.88477,-0.76562 -0.54414,-0.30146 -1.18481,-0.44531 -1.89648,-0.44532 -0.38148,0 -0.76753,0.0598 -1.15235,0.17383 -0.39794,0.11791 -0.76337,0.30728 -1.08984,0.5586 -0.33523,0.24559 -0.61376,0.56126 -0.82226,0.93359 l -0.004,0.006 -0.004,0.008 c -0.2079,0.39982 -0.30468,0.85799 -0.30468,1.35352 0,0.49552 0.0959,0.94574 0.31835,1.32226 0.19809,0.33522 0.45843,0.62718 0.77344,0.86719 l 0.0117,0.008 0.01,0.008 c 0.31533,0.21499 0.66519,0.39133 1.04297,0.53125 l 0.002,0.002 h 0.002 c 0.35915,0.12827 0.73107,0.25671 1.11524,0.38476 h 0.002 l 0.002,0.002 c 0.46215,0.14988 0.92419,0.31132 1.38672,0.48633 l 0.002,0.002 h 0.004 c 0.43931,0.16185 0.82509,0.37293 1.16406,0.63281 l 0.004,0.004 0.004,0.002 c 0.31962,0.23439 0.57944,0.53574 0.78906,0.92188 l 0.002,0.002 0.002,0.004 c 0.18733,0.33522 0.29883,0.79875 0.29883,1.4121 0,0.60707 -0.11992,1.10358 -0.34179,1.51563 v 0.002 l -0.002,0.002 c -0.22226,0.42229 -0.50848,0.76193 -0.86914,1.03515 l -0.002,0.002 -0.004,0.002 c -0.35335,0.27606 -0.76082,0.48272 -1.23828,0.61914 h -0.002 -0.002 c -0.47652,0.13947 -0.95562,0.20898 -1.4414,0.20898 -0.36994,0 -0.73892,-0.0396 -1.11133,-0.12109 l -0.008,-0.002 -0.008,-0.002 c -0.36901,-0.0692 -0.71697,-0.1774 -1.04883,-0.32617 -0.3299,-0.14789 -0.63675,-0.3344 -0.92188,-0.5625 -0.15211,-0.12169 -0.26816,-0.27891 -0.40039,-0.41992 l 0.39453,-0.29297 c 0.29227,0.3596 0.57377,0.72933 0.98828,0.99219 l 0.006,0.004 0.006,0.002 c 0.61733,0.36745 1.33745,0.54687 2.12305,0.54687 0.39228,0 0.78913,-0.0586 1.18555,-0.17187 l 0.008,-0.002 0.008,-0.002 c 0.4066,-0.13069 0.77864,-0.32362 1.10547,-0.57617 l 0.002,-0.002 c 0.33993,-0.26604 0.62061,-0.59076 0.83008,-0.96289 v -0.002 c 0.23701,-0.41154 0.35352,-0.88596 0.35352,-1.39062 0,-0.53384 -0.11322,-1.01684 -0.36133,-1.41797 -0.21357,-0.37605 -0.50653,-0.69603 -0.86719,-0.9375 -0.34445,-0.24294 -0.7331,-0.43957 -1.16211,-0.5918 -0.39849,-0.1414 -0.81605,-0.2828 -1.25195,-0.42383 h -0.002 l -0.002,-0.002 c -0.43079,-0.13539 -0.85486,-0.28858 -1.27343,-0.46094 -0.38822,-0.15985 -0.73053,-0.3633 -1.03321,-0.60937 -0.001,-9e-4 -0.003,-0.001 -0.004,-0.002 -0.288,-0.24717 -0.52082,-0.54552 -0.70704,-0.90625 -0.15948,-0.33253 -0.25195,-0.76645 -0.25195,-1.31641 0,-0.58067 0.11121,-1.04885 0.31836,-1.43359 0.23374,-0.41066 0.52485,-0.73825 0.88477,-1 0.37077,-0.26966 0.77821,-0.46548 1.23047,-0.58985 0.46794,-0.12868 0.9228,-0.1914 1.37109,-0.1914 z m -65.41797,0.20117 c -0.92487,0 -1.77966,0.17186 -2.54883,0.52148 h -0.002 -0.002 c -0.7427,0.34384 -1.38421,0.81786 -1.91211,1.41406 -6e-4,6.6e-4 -0.001,0.001 -0.002,0.002 -0.52661,0.58258 -0.92901,1.2657 -1.20312,2.0332 -0.27366,0.76624 -0.41016,1.57485 -0.41016,2.41602 0,0.84116 0.1365,1.64977 0.41016,2.41601 0.27442,0.76837 0.67758,1.45018 1.20508,2.0332 0.52854,0.58418 1.17001,1.05097 1.91211,1.39454 l 0.002,0.002 h 0.002 c 0.76917,0.34962 1.62396,0.52148 2.54883,0.52148 0.92419,0 1.77522,-0.17284 2.5332,-0.52343 0.75394,-0.34309 1.4042,-0.80941 1.9336,-1.39454 0.52749,-0.58302 0.93066,-1.26483 1.20508,-2.0332 0.27365,-0.76624 0.41015,-1.57485 0.41015,-2.41601 0,-0.84117 -0.1365,-1.64978 -0.41015,-2.41602 -0.27411,-0.7675 -0.67651,-1.45062 -1.20313,-2.0332 -0.5297,-0.5988 -1.18104,-1.07217 -1.9375,-1.41602 -0.75756,-0.35006 -1.60774,-0.52148 -2.53125,-0.52148 z m -131.630859,0.14258 h 7.134766 v 0.21875 h -6.761719 v 5.68554 h 6.285156 v 0.20117 h -6.285156 v 6.38086 h -0.373047 z m 20.232422,0 h 0.371094 v 12.48632 h -0.371094 z m 14.476563,0 h 7.363281 v 0.21875 h -6.990235 v 5.64843 h 6.533204 v 0.19922 h -6.533204 v 6.20117 h 7.21875 v 0.21875 h -7.591796 z m 20.802734,0 h 0.373047 v 12.26757 h 6.285153 v 0.21875 h -6.6582 z m 18.7832,0 h 3.97852 c 0.78264,0 1.5647,0.12899 2.35547,0.39257 h 0.002 v 0.002 c 0.79203,0.26006 1.49464,0.6514 2.11914,1.18164 l 0.004,0.004 0.004,0.002 c 0.62812,0.5118 1.13294,1.15637 1.52344,1.94922 h 0.002 v 0.002 c 0.37935,0.75869 0.57618,1.65584 0.57618,2.71094 0,1.0685 -0.19728,1.97072 -0.57618,2.72851 -0.39064,0.78128 -0.89737,1.42652 -1.52929,1.95313 -0.62494,0.51882 -1.32889,0.9072 -2.12305,1.16797 h -0.002 c -0.79077,0.26358 -1.57283,0.39257 -2.35547,0.39257 h -3.97852 z m 22.36328,0 h 0.40235 l 3.33398,11.60156 h 0.78906 l 3.37305,-11.60156 h 0.88672 l 3.37109,11.60156 h 0.79297 l 3.29492,-11.60156 h 0.4004 l -3.68555,12.48632 h -0.85156 l -3.39063,-11.58203 h -0.78711 l -3.39258,11.58203 h -0.85156 z m 54.88477,0 h 3.46289 c 0.62835,0 1.20146,0.0602 1.71875,0.17773 h 0.002 c 0.51676,0.11483 0.93912,0.29956 1.28321,0.54687 l 0.008,0.006 0.006,0.004 c 0.34928,0.23285 0.61057,0.52779 0.80273,0.91211 0.18554,0.37107 0.28907,0.85042 0.28907,1.45312 0,0.43548 -0.0767,0.81429 -0.22461,1.15235 -0.15317,0.35008 -0.357,0.64875 -0.61524,0.9082 -0.25811,0.24663 -0.56448,0.44775 -0.93164,0.60352 -0.36967,0.15683 -0.77592,0.26042 -1.22656,0.30664 l -0.79102,0.0801 3.89063,6.33593 h -0.4961 l -3.73437,-6.30468 h -3.07031 v 6.30468 H 190.75 Z m 20.9375,0 h 0.37109 v 5.30468 0.75196 6.42968 h -0.37109 z m 7.50781,0 h 0.45899 l -6.2168,5.59179 6.7168,6.89453 h -0.61719 l -6.37891,-6.79101 z m -28.07226,0.18164 v 5.81836 h 2.88086 c 1.16428,0 2.11285,-0.20011 2.82812,-0.67188 l 0.002,-0.004 0.004,-0.002 c 0.72308,-0.49231 1.11328,-1.29822 1.11328,-2.22266 0,-0.5064 -0.095,-0.96702 -0.30859,-1.36132 -0.20314,-0.37503 -0.49337,-0.69022 -0.85156,-0.92383 -0.35394,-0.23083 -0.76938,-0.39119 -1.23633,-0.49024 -0.45922,-0.0974 -0.95698,-0.14257 -1.49414,-0.14257 z m -77.24805,0.0371 v 12.04882 h 3.22266 c 1.06808,0 2.0197,-0.16645 2.84375,-0.51562 0.81271,-0.33899 1.501,-0.78774 2.04882,-1.34961 l 0.002,-0.002 0.002,-0.002 c 0.53806,-0.56565 0.9443,-1.21659 1.20899,-1.9375 v -0.002 c 0.27473,-0.71496 0.41601,-1.45638 0.41601,-2.21484 0,-0.75846 -0.14128,-1.50184 -0.41601,-2.2168 -0.26441,-0.72074 -0.67,-1.36604 -1.20899,-1.91992 l -0.002,-0.002 c -0.54793,-0.57543 -1.2363,-1.0315 -2.05078,-1.37109 h -0.002 c -0.82367,-0.3487 -1.77442,-0.51562 -2.84179,-0.51562 z m 56.96289,0.63867 c 0.80233,0 1.50205,0.1458 2.11523,0.42968 h 0.002 v 0.002 c 0.63968,0.29076 1.17029,0.67748 1.60547,1.16992 l 0.002,0.002 0.002,0.004 c 0.43771,0.48378 0.77033,1.04519 1.00391,1.69922 0.23434,0.65616 0.35156,1.34644 0.35156,2.08008 0,0.73363 -0.11722,1.42196 -0.35156,2.07812 -0.23358,0.65403 -0.5662,1.21739 -1.00391,1.70117 -0.43519,0.48101 -0.96741,0.86445 -1.60937,1.15625 l -0.002,0.002 c -0.61318,0.28388 -1.3129,0.42968 -2.11523,0.42968 -0.80232,0 -1.50693,-0.14626 -2.13477,-0.43164 -0.62834,-0.29129 -1.15378,-0.67429 -1.58984,-1.15625 -0.4377,-0.48378 -0.77032,-1.04714 -1.00391,-1.70117 -0.23434,-0.65616 -0.35156,-1.34449 -0.35156,-2.07812 0,-0.73364 0.11722,-1.42392 0.35156,-2.08008 0.23359,-0.65403 0.56621,-1.21544 1.00391,-1.69922 l 0.002,-0.004 0.002,-0.002 c 0.43601,-0.49338 0.95989,-0.87968 1.58593,-1.16992 0.62784,-0.28538 1.33245,-0.43164 2.13477,-0.43164 z m 21.28516,0.32422 h 1.9375 c 0.47883,0 0.90812,0.0407 1.28711,0.12109 0.37124,0.0788 0.66622,0.19944 0.89648,0.34961 0.226,0.14739 0.39247,0.32792 0.51953,0.5625 0.11662,0.2153 0.1875,0.50217 0.1875,0.88476 0,0.67463 -0.20478,1.07431 -0.67383,1.39454 -0.47865,0.3146 -1.22982,0.50586 -2.27343,0.50586 h -1.88086 z m -77.24805,0.0371 h 2.22266 c 0.96391,0 1.77857,0.15167 2.45312,0.4375 h 0.002 0.002 c 0.70792,0.29496 1.27281,0.67593 1.71484,1.14062 l 0.002,0.002 0.004,0.002 c 0.44803,0.45951 0.77455,0.98053 0.99219,1.57617 l 0.002,0.004 0.002,0.004 c 0.2328,0.60527 0.34766,1.22148 0.34766,1.85938 0,0.63789 -0.11486,1.25214 -0.34766,1.85742 l -0.002,0.004 -0.002,0.004 c -0.21799,0.59661 -0.54756,1.12601 -0.99805,1.59961 -0.44152,0.45143 -1.00716,0.82623 -1.71484,1.12109 h -0.002 l -0.002,0.002 c -0.67455,0.28582 -1.48921,0.43554 -2.45312,0.43554 h -2.2228 z"
           id="path4" /></g><g
         id="text7"
         inkscape:label="Terra"
         style="opacity:1;fill:#ffffff"
         transform="scale(1.0448478,0.95707719)"><path
           style="font-size:53.2948px;font-family:'Avenir Next';-inkscape-font-specification:'Avenir Next';baseline-shift:baseline;display:inline;overflow:visible;vector-effect:none;fill:#ffffff;enable-background:accumulate;stop-color:#000000;stop-opacity:1"
           d="M 43.000745,177.32741 H 39.163519 V 143.00556 H 26.532652 v -3.41087 h 29.09896 v 3.41087 H 43.000745 Z m 34.161944,-3.41087 h 20.198729 v 3.41087 H 73.325463 V 139.59469 H 96.72188 v 3.41087 H 77.162689 v 13.00393 h 18.280116 v 3.35757 H 77.162689 Z m 44.874271,3.41087 h -3.83723 v -37.73272 h 11.08532 q 2.77133,0 5.1163,0.53295 2.39827,0.53295 4.1037,1.75873 1.75873,1.17248 2.71803,3.09109 0.95931,1.91862 0.95931,4.68995 0,2.07849 -0.74613,3.78393 -0.74612,1.70543 -2.0252,2.98451 -1.27907,1.22578 -3.0378,1.9719 -1.75873,0.74613 -3.83723,0.95931 l 11.03203,17.96035 h -4.68995 l -10.44578,-17.64058 h -6.39537 z m 0,-20.94486 h 6.66185 q 4.63664,0 7.1415,-1.65214 2.50486,-1.70543 2.50486,-5.063 0,-1.86532 -0.69284,-3.1444 -0.69283,-1.27907 -1.91861,-2.07849 -1.22578,-0.79943 -2.98451,-1.17249 -1.75873,-0.37306 -3.89052,-0.37306 h -6.82173 z m 45.24734,20.94486 h -3.83722 v -37.73272 h 11.08531 q 2.77133,0 5.1163,0.53295 2.39827,0.53295 4.1037,1.75873 1.75873,1.17248 2.71804,3.09109 0.95931,1.91862 0.95931,4.68995 0,2.07849 -0.74613,3.78393 -0.74613,1.70543 -2.0252,2.98451 -1.27908,1.22578 -3.03781,1.9719 -1.75873,0.74613 -3.83722,0.95931 l 11.03202,17.96035 h -4.68994 l -10.44578,-17.64058 h -6.39538 z m 0,-20.94486 h 6.66185 q 4.63665,0 7.1415,-1.65214 2.50486,-1.70543 2.50486,-5.063 0,-1.86532 -0.69283,-3.1444 -0.69283,-1.27907 -1.91862,-2.07849 -1.22578,-0.79943 -2.9845,-1.17249 -1.75873,-0.37306 -3.89052,-0.37306 h -6.82174 z m 41.14363,20.94486 h -4.21029 l 16.30821,-37.73272 h 3.73064 l 16.20162,37.73272 h -4.26359 l -13.90994,-32.93619 z"
           id="path5" /><path
           style="font-size:53.2948px;font-family:'Avenir Next';-inkscape-font-specification:'Avenir Next';baseline-shift:baseline;display:inline;overflow:visible;vector-effect:none;fill:#ffffff;enable-background:accumulate;stop-color:#000000;stop-opacity:1"
           d="m 24.644531,137.70703 v 7.1875 h 12.63086 v 34.32227 h 7.613281 v -34.32227 h 12.630859 v -7.1875 z m 46.792969,0 V 179.2168 H 99.25 v -7.18946 H 79.050781 v -10.77148 h 18.28125 v -7.13477 h -18.28125 v -9.22656 h 19.560547 v -7.1875 z m 44.87305,0 v 41.50977 h 7.61523 v -17.64063 h 3.42969 l 10.44531,17.64063 h 9.14453 l -11.46289,-18.66211 c 0.53412,-0.15587 1.12379,-0.19391 1.62891,-0.40821 1.36325,-0.57834 2.57877,-1.36373 3.60547,-2.34765 l 0.0156,-0.0137 0.0137,-0.0137 c 1.01965,-1.01964 1.83317,-2.22132 2.41993,-3.5625 0.61034,-1.39506 0.90429,-2.92938 0.90429,-4.54101 0,-2.06546 -0.356,-3.93077 -1.1582,-5.53516 -0.7717,-1.54341 -1.90998,-2.83932 -3.33203,-3.79492 -1.36434,-0.97475 -2.96926,-1.65367 -4.75977,-2.05273 -1.72009,-0.39094 -3.56654,-0.57813 -5.53515,-0.57813 z m 45.24804,0 v 41.50977 h 7.61328 v -17.64063 h 3.43165 l 10.44531,17.64063 h 9.14258 l -11.46289,-18.66211 c 0.53435,-0.15591 1.12357,-0.19382 1.6289,-0.40821 1.36325,-0.57834 2.58072,-1.36373 3.60742,-2.34765 l 0.0156,-0.0137 0.0137,-0.0137 c 1.01963,-1.01963 1.83316,-2.22133 2.41992,-3.5625 0.61034,-1.39506 0.9043,-2.92938 0.9043,-4.54101 0,-2.06546 -0.35601,-3.93077 -1.1582,-5.53516 -0.77171,-1.5434 -1.90999,-2.83932 -3.33204,-3.79492 -1.36481,-0.97509 -2.97045,-1.65372 -4.76171,-2.05273 -6e-4,-1.4e-4 -10e-4,1.3e-4 -0.002,0 -1.71958,-0.39066 -3.56332,-0.57813 -5.53125,-0.57813 z m 57.72657,0 -17.94141,41.50977 h 8.33789 l 12.60547,-29.96485 12.6543,29.96485 h 8.38281 L 225.5,137.70703 Z m -178.232426,3.77539 h 0.05859 v 33.95703 h -0.05859 z m 34.16211,0 h 0.05859 v 15.9961 0.41992 17.54101 h -0.05859 z m 44.873046,0 h 0.0605 v 16.31641 0.47265 17.16797 h -0.0605 z m 45.24805,0 h 0.0605 v 16.31641 0.47265 17.16797 h -0.0605 z m 17.10937,1.84961 c 0.0558,0.0379 0.15082,0.0489 0.20508,0.0879 l 0.0273,0.0195 0.0274,0.0176 c 0.90876,0.60584 1.57426,1.36143 2.07617,2.36524 0.10853,0.21705 0.0864,0.62532 0.17383,0.875 -0.12494,-0.36155 -0.21348,-0.73998 -0.39453,-1.07422 -0.50264,-0.92794 -1.28569,-1.64452 -2.11524,-2.29102 z m -45.24609,0.002 c 0.0552,0.0375 0.14946,0.0474 0.20312,0.0859 l 0.0273,0.0195 0.0273,0.0176 c 0.90877,0.60584 1.57427,1.36143 2.07617,2.36524 0.10778,0.21556 0.0849,0.6214 0.17188,0.86914 -0.12453,-0.35934 -0.21256,-0.73603 -0.39258,-1.06836 -0.50236,-0.92744 -1.28433,-1.64274 -2.11328,-2.28907 z m -13.27344,1.45313 h 4.93359 c 1.31104,0 2.47708,0.11546 3.49805,0.33203 0.99175,0.21037 1.76014,0.52563 2.34375,0.90625 0.56754,0.37013 0.9728,0.80901 1.29102,1.39648 0.27878,0.51467 0.46484,1.23637 0.46484,2.2461 0,1.76231 -0.48605,2.68186 -1.66992,3.49219 -1.22382,0.80271 -3.22923,1.33398 -6.08789,1.33398 h -4.77344 z m 45.24609,0 h 4.9336 c 1.31103,0 2.47902,0.11546 3.5,0.33203 0.99174,0.21037 1.76013,0.52563 2.34375,0.90625 0.56754,0.37013 0.97085,0.80902 1.28906,1.39648 0.27878,0.51467 0.46484,1.23637 0.46484,2.2461 10e-6,1.76165 -0.48507,2.68014 -1.66796,3.49023 -1.22365,0.80336 -3.2298,1.33594 -6.08985,1.33594 h -4.77344 z m 16.24219,4.24219 c 0.0152,0.25068 0.12696,0.36796 0.12696,0.63867 0,1.15968 -0.2034,2.14849 -0.5879,3.02734 -0.0606,0.13862 -0.1758,0.22508 -0.24218,0.35742 0.45496,-1.04459 0.76953,-2.17212 0.76953,-3.38476 0,-0.22143 -0.0537,-0.42209 -0.0664,-0.63867 z m -45.24219,0.0215 c 0.0142,0.24279 0.1211,0.35572 0.1211,0.61719 0,1.15968 -0.20144,2.14849 -0.58594,3.02734 -0.0613,0.14001 -0.17703,0.22772 -0.24414,0.36133 0.45595,-1.04549 0.77148,-2.17468 0.77148,-3.38867 0,-0.21392 -0.0507,-0.40778 -0.0625,-0.61719 z m -1.60156,5.32031 c -0.17662,0.22223 -0.28025,0.50769 -0.48242,0.71094 -0.0852,0.0813 -0.21921,0.12365 -0.30859,0.20117 0.28815,-0.2869 0.55522,-0.58398 0.79101,-0.91211 z m 45.23828,0.01 c -0.17498,0.21942 -0.2766,0.50224 -0.47656,0.70312 -0.0843,0.0803 -0.21635,0.12261 -0.30469,0.19922 0.28487,-0.28362 0.54755,-0.57839 0.78125,-0.90234 z m 44.95508,0.49609 8.82813,20.5625 h -0.14453 z m -49.94531,9.78321 6.62109,10.77929 h -0.23828 z m -45.19336,0.0879 6.56641,10.6914 h -0.23633 z m 76.58594,3.47461 -3.03711,7.21679 h -0.084 z"
           id="path6" /></g></g></g><g
     inkscape:groupmode="layer"
     id="layer2"
     inkscape:label="Logo"
     transform="matrix(0.4958649,0,0,0.49074896,180.42656,-24.504322)"><g
       id="g30"
       transform="matrix(0.27460812,0.55461444,-0.54733997,0.27254576,-184.77967,133.35916)"
       style="fill:#ffffff"><path
         style="baseline-shift:baseline;display:inline;overflow:visible;opacity:1;vector-effect:none;fill:#ffffff;enable-background:accumulate;stop-color:#000000;stop-opacity:1"
         d="m -164.42773,99.875 c -3.94554,-0.05989 -8.12355,0.53845 -11.85938,2.56445 -3.70818,2.01102 -6.44086,5.12575 -8.63476,8.28516 -2.18684,3.14922 -3.89755,6.38014 -5.83204,9.23633 -3.41453,5.04142 -7.85987,9.38926 -13.16211,11.77539 -2.35524,1.05991 -5.10322,1.80363 -7.94335,2.98633 -2.85987,1.19091 -5.87312,2.8968 -7.94532,5.80273 -1.86238,2.6117 -2.54691,5.6009 -2.93945,8.31055 -0.39049,2.69549 -0.52925,5.18752 -1.07031,7.35937 -0.88359,3.54675 -2.95885,6.8372 -5.7793,9.16211 l 3.22266,3.91016 c 3.67812,-3.03189 6.32233,-7.22043 7.47461,-11.84571 0.69922,-2.80669 0.82286,-5.47715 1.16796,-7.85937 0.34306,-2.36806 0.9343,-4.52806 2.05079,-6.09375 1.24119,-1.74058 3.35909,-3.06541 5.76757,-4.06836 2.42822,-1.01117 5.22528,-1.76088 8.07422,-3.04297 6.42364,-2.89079 11.48109,-7.94967 15.27735,-13.55469 2.13905,-3.15822 3.84242,-6.37011 5.79882,-9.1875 1.94933,-2.80719 4.21136,-5.27069 6.88868,-6.72265 2.69338,-1.46067 5.99976,-2.00033 9.36718,-1.94922 3.38259,0.0513 6.88592,0.66727 10.54102,1.23047 6.47198,0.99724 12.98707,1.71162 19.52148,2.13867 l 0.33008,-5.05859 c -6.38661,-0.41739 -12.75449,-1.11321 -19.08008,-2.08789 -3.57339,-0.55062 -7.30595,-1.231361 -11.23632,-1.29102 z"
         id="path23"
         transform="translate(106.7159,86.262704)" /><path
         style="baseline-shift:baseline;display:inline;overflow:visible;opacity:1;vector-effect:none;fill:#ffffff;enable-background:accumulate;stop-color:#000000;stop-opacity:1"
         d="m -183.39453,65.888672 c -1.53198,-0.195663 -3.13242,-0.166157 -4.75586,0.195312 -3.32184,0.739627 -5.99789,2.707013 -7.98242,5 -1.96099,2.265783 -3.24106,4.796575 -4.27735,7.189453 -2.0944,4.836178 -3.42081,9.653522 -5.16406,13.988282 -1.73606,4.316876 -3.96471,8.255781 -7.05859,10.908201 -2.3391,2.00533 -5.36405,3.4433 -8.64649,4.51367 -3.29194,1.07348 -6.87811,1.80448 -10.60742,2.73047 -3.73229,0.92673 -7.64218,2.06342 -11.36133,4.0625 -3.74279,2.01179 -7.26661,4.92787 -9.50195,8.96094 -1.74549,3.14927 -2.45423,6.4904 -2.90234,9.56836 -0.44686,3.06937 -0.65334,5.92369 -1.18555,8.4707 -1.12401,5.37919 -3.87022,10.46167 -7.75195,14.35156 l 5.02343,5.01172 c 4.87396,-4.8842 8.26251,-11.15792 9.67383,-17.91211 0.66407,-3.17806 0.86597,-6.18204 1.26172,-8.90039 0.3945,-2.70975 0.99808,-5.18412 2.08789,-7.15039 1.38826,-2.50474 3.81113,-4.6232 6.65235,-6.15039 2.86485,-1.53989 6.19061,-2.5512 9.71289,-3.42578 3.52525,-0.87532 7.28499,-1.62718 11.09961,-2.87109 3.82412,-1.24701 7.72673,-3.01326 11.0625,-5.87305 4.40718,-3.77832 7.073,-8.796551 9.02343,-13.646484 1.94324,-4.832049 3.25973,-9.585975 5.0918,-13.816406 0.90263,-2.084267 1.90092,-3.941875 3.13281,-5.365234 1.20834,-1.396155 2.71966,-2.398014 4.16016,-2.71875 1.41355,-0.314735 3.184,-0.07193 4.91797,0.623046 1.76394,0.70699 3.55908,1.869414 5.48242,3.203125 3.66246,2.539683 7.46245,5.401025 11.94726,7.582032 11.25394,5.472896 24.90408,5.207339 35.93555,-0.701172 l -3.34961,-6.25586 c -8.92904,4.782441 -20.37526,5.007973 -29.48437,0.578125 -3.68139,-1.790293 -7.20623,-4.398399 -11.00586,-7.033203 -2.0002,-1.387009 -4.21687,-2.889688 -6.88477,-3.958984 -1.34893,-0.540655 -2.81372,-0.962541 -4.3457,-1.158203 z"
         id="path24"
         transform="translate(107.77423,87.321038)" /><path
         style="baseline-shift:baseline;display:inline;overflow:visible;opacity:1;vector-effect:none;fill:#ffffff;enable-background:accumulate;stop-color:#000000;stop-opacity:1"
         d="m -189.51953,32.017578 c -3.3475,0.205418 -6.52224,1.422684 -9.22461,3.244141 -2.69556,1.816867 -4.90672,4.204062 -6.66797,6.820312 -3.51652,5.223631 -5.22672,11.209832 -6.75586,16.916016 -2.0801,7.762162 -3.99786,15.481265 -8.01172,21.902344 -1.58286,2.532144 -3.47778,4.819073 -5.74414,6.529296 -4.7173,3.559742 -11.13572,4.685826 -17.61914,5.78125 -3.24911,0.548964 -6.59364,1.136313 -9.89453,2.197266 -3.30618,1.062652 -6.57852,2.616691 -9.33984,4.990237 -3.70492,3.18462 -6.05572,7.44862 -7.80078,11.67773 -1.74118,4.2197 -2.94623,8.47528 -4.5879,12.38867 -2.86993,6.84136 -7.22394,13.0689 -12.66406,18.11328 l 2.75781,2.97461 c 5.86846,-5.44157 10.55058,-12.13949 13.64649,-19.51953 1.7689,-4.2167 2.97396,-8.47992 4.5957,-12.41015 1.61785,-3.92081 3.71622,-7.58603 6.69727,-10.14844 2.21959,-1.90789 4.99062,-3.25986 7.9375,-4.207032 2.95216,-0.948867 6.10091,-1.51333 9.32812,-2.058594 6.46924,-1.093028 13.6183,-2.19004 19.38672,-6.542968 2.78222,-2.099499 4.96864,-4.78624 6.73828,-7.617188 4.47254,-7.15483 6.42617,-15.297684 8.49024,-23 1.51373,-5.648676 3.15486,-11.173109 6.20312,-15.701172 1.52115,-2.259595 3.3919,-4.256307 5.57031,-5.724609 2.17161,-1.463713 4.68782,-2.404003 7.20704,-2.558594 2.87463,-0.176401 5.8813,0.654424 8.72851,1.966797 2.85729,1.317017 5.61404,3.117597 8.55078,4.851562 6.40207,3.780026 13.48673,7.039184 21.20117,7.738282 7.1663,0.649423 14.48598,-1.02645 20.65625,-4.728516 l -2.08593,-3.476562 c -5.416,3.249513 -11.91482,4.738004 -18.20508,4.167968 -6.80025,-0.616251 -13.35805,-3.563454 -19.50586,-7.193359 -2.82715,-1.669259 -5.69243,-3.556059 -8.91406,-5.041016 -3.23171,-1.4896 -6.86742,-2.565609 -10.67383,-2.332031 z"
         id="path25"
         transform="translate(106.42785,86.444791)" /><path
         style="baseline-shift:baseline;display:inline;overflow:visible;opacity:1;vector-effect:none;fill:#ffffff;enable-background:accumulate;stop-color:#000000;stop-opacity:1"
         d="m -191.01953,2.65625 c -4.93301,-0.3673777 -9.95946,0.5051794 -14.41016,2.7109375 -7.42683,3.6807236 -12.75341,10.8397755 -14.98633,18.7499995 -1.46205,5.179403 -1.66485,10.512888 -2.21679,15.660157 -0.55139,5.142175 -1.50795,10.28259 -4.09961,14.52539 -1.98604,3.251334 -4.9164,5.920597 -8.26172,7.837891 -3.34837,1.91904 -7.11618,3.110207 -10.97266,3.730469 -5.06516,0.814661 -10.33218,0.659143 -15.64843,1.074218 -5.32342,0.415635 -10.86869,1.476655 -15.44922,4.582032 -4.61934,3.131687 -7.65556,7.923036 -10.17188,12.65625 -2.51308,4.727137 -4.66853,9.575854 -7.88672,13.566406 -3.52522,4.37128 -8.35616,7.69552 -13.69922,9.42383 l 0.62305,1.92773 c 5.72557,-1.85203 10.8767,-5.3939 14.6543,-10.078123 3.44115,-4.267025 5.63107,-9.247043 8.09765,-13.886718 2.46336,-4.633599 5.3583,-9.110528 9.51954,-11.931641 4.12502,-2.796563 9.30845,-3.83523 14.4707,-4.238281 5.16941,-0.40361 10.49353,-0.238267 15.8125,-1.09375 4.05367,-0.651977 8.05546,-1.909781 11.6582,-3.97461 3.60579,-2.066575 6.79206,-4.953233 8.98242,-8.539062 2.85317,-4.670909 3.82448,-10.123786 4.38672,-15.367188 0.5617,-5.238308 0.77682,-10.451331 2.15235,-15.324218 2.0902,-7.404674 7.104,-14.098675 13.93554,-17.4843753 5.46053,-2.7062295 11.94824,-3.2486785 17.90039,-1.78125 6.12166,1.5092173 11.80785,5.1269513 18.36719,6.7285153 6.56433,1.602783 13.63812,0.941493 19.79102,-1.851562 l -0.83789,-1.8457032 c -5.7289,2.6005822 -12.35873,3.2208492 -18.47071,1.7285152 -6.12358,-1.4951682 -11.80897,-5.112635 -18.36328,-6.7285152 -1.59888,-0.394185 -3.23261,-0.6548846 -4.87695,-0.7773438 z"
         id="path27"
         transform="translate(105.90807,90.496042)" /><path
         style="baseline-shift:baseline;display:inline;overflow:visible;opacity:1;vector-effect:none;fill:#ffffff;enable-background:accumulate;stop-color:#000000;stop-opacity:1"
         d="m -186.10547,-16.095703 c -6.37288,1.286285 -12.64792,3.049458 -18.75781,5.271484 -6.68786,2.4322219 -13.59401,5.5787081 -18.98633,10.99414087 -7.51463,7.54683803 -10.69195,18.22269513 -10.9043,28.45507813 -0.0921,4.43932 0.2979,8.61561 0.0566,12.511719 -0.23952,3.868073 -1.16543,7.577651 -3.19921,10.259765 -1.96733,2.594477 -5.14134,4.425121 -8.58594,5.304688 -3.47716,0.887879 -7.29241,0.902757 -11.17774,0.527344 -7.78784,-0.752489 -16.28836,-3.193132 -25.21484,-1.494141 -7.24866,1.379648 -13.50717,5.388695 -18.70117,10.039062 -4.12944,3.697224 -7.77294,7.930788 -10.81445,12.564454 l 4.93554,3.240234 c 2.75948,-4.203984 6.0699,-8.051871 9.81641,-11.40625 4.68534,-4.194944 10.0892,-7.538939 15.86719,-8.638672 7.14418,-1.359763 15.04748,0.751403 23.54296,1.572266 4.25635,0.411262 8.7589,0.45222 13.20704,-0.683594 4.48068,-1.144126 8.8552,-3.53382 11.83007,-7.457031 3.05636,-4.030677 4.10753,-8.922635 4.38868,-13.462891 0.2794,-4.51222 -0.1315,-8.770605 -0.0488,-12.753906 0.18849,-9.082761 3.06861,-18.268956 9.18554,-24.4121095 4.40473,-4.4236081 10.45946,-7.2980291 16.82032,-9.6113281 5.83259,-2.1211811 11.82455,-3.8052958 17.9082,-5.0332034 z"
         id="path28"
         transform="matrix(1.0615284,0,0,0.99944745,116.40912,82.654764)" /><path
         style="baseline-shift:baseline;display:none;overflow:visible;opacity:1;vector-effect:none;fill:#ffffff;enable-background:accumulate;stop-color:#000000;stop-opacity:1"
         d="m -216.36523,-25.722656 c -11.57706,4.439617 -21.06928,13.784825 -25.68946,25.29101537 -2.97554,7.41034643 -3.89294,15.04803363 -6.60547,21.57617163 -2.99319,7.203602 -8.50103,13.513752 -15.5039,16.22461 -4.39501,1.701337 -9.42209,2.041241 -14.58008,2.111328 -5.16557,0.07019 -10.61052,-0.105169 -16.12109,0.988281 -11.83591,2.348569 -22.16624,10.671635 -26.98047,21.736328 l 4.64648,2.021484 c 4.11833,-9.465276 13.19531,-16.778029 23.32031,-18.787109 4.76545,-0.945595 9.89329,-0.818475 15.20313,-0.890625 5.31741,-0.07225 10.96691,-0.372473 16.3418,-2.453125 8.60953,-3.332806 14.92291,-10.751528 18.35351,-19.007812 3.07172,-7.392588 3.98732,-15.052207 6.62891,-21.6308598 4.07499,-10.1484327 12.59179,-18.5315332 22.80273,-22.4472652 z"
         id="path29"
         transform="translate(106.7159,86.262704)" /><path
         style="baseline-shift:baseline;display:inline;overflow:visible;opacity:1;vector-effect:none;fill:#ffffff;enable-background:accumulate;stop-color:#000000;stop-opacity:1"
         d="m -236.30664,-21.623047 c -7.30241,5.792174 -12.69675,13.9068056 -15.21484,22.8808595 -1.44111,5.135865 -1.93099,10.3482995 -2.82813,15.3359375 -0.896,4.981283 -2.25398,9.868985 -5.00195,13.806641 -1.81097,2.594994 -4.23711,4.767335 -7.0293,6.189453 -2.78917,1.420578 -5.97361,2.093794 -9.0625,1.83789 -2.78377,-0.230625 -5.57301,-1.213541 -8.41601,-2.291015 -2.84581,-1.078535 -5.81692,-2.270925 -9.07227,-2.757813 -3.57596,-0.53484 -7.26984,-0.148684 -10.6582,1.113281 -3.38837,1.261966 -6.43613,3.387127 -8.79102,6.13086 l 2.30859,1.980469 c 2.01463,-2.347282 4.6442,-4.182099 7.54297,-5.261719 2.89877,-1.07962 6.08918,-1.412638 9.14844,-0.955078 2.79537,0.41809 5.56823,1.504098 8.44336,2.59375 2.87793,1.090712 5.93078,2.202063 9.24414,2.476562 3.69258,0.305917 7.41704,-0.490504 10.69141,-2.158203 3.27135,-1.66616 6.06124,-4.172986 8.14453,-7.158203 3.14963,-4.513204 4.57359,-9.848546 5.50195,-15.009766 0.92722,-5.154864 1.41677,-10.2665299 2.75977,-15.052734 2.34109,-8.3432648 7.39057,-15.93332 14.17968,-21.318359 z"
         id="path30"
         transform="translate(104.07007,83.616871)" /><path
         style="baseline-shift:baseline;display:inline;overflow:visible;opacity:1;vector-effect:none;fill:#ffffff;enable-background:accumulate;stop-color:#000000;stop-opacity:1"
         d="m -117.77734,58.783203 c -54.51578,0 -98.78516,44.269377 -98.78516,98.785157 0,54.51578 44.26938,98.78516 98.78516,98.78516 54.515776,0 98.785153,-44.26938 98.785153,-98.78516 0,-54.51578 -44.269377,-98.785157 -98.785153,-98.785157 z m 0,7.09375 c 50.681315,0 91.689449,41.010087 91.689449,91.691407 0,50.68132 -41.008134,91.69141 -91.689449,91.69141 -50.68132,0 -91.69141,-41.01009 -91.69141,-91.69141 0,-50.68132 41.01009,-91.691407 91.69141,-91.691407 z"
         id="path1" /></g></g></svg>
